<svg class="animated" id="freepik_stories-documents" xmlns="http://www.w3.org/2000/svg" viewBox="0 0 500 500" version="1.1" xmlns:xlink="http://www.w3.org/1999/xlink" xmlns:svgjs="http://svgjs.com/svgjs"><style>svg#freepik_stories-documents:not(.animated) .animable {opacity: 0;}svg#freepik_stories-documents.animated #freepik--filing-cabinets--inject-35 {animation: 1.5s Infinite  linear wind;animation-delay: 0s;}svg#freepik_stories-documents.animated #freepik--Plants--inject-35 {animation: 1.5s Infinite  linear wind;animation-delay: 0s;}svg#freepik_stories-documents.animated #freepik--folder-2--inject-35 {animation: 1.5s Infinite  linear floating;animation-delay: 0s;}svg#freepik_stories-documents.animated #freepik--folder-1--inject-35 {animation: 1.5s Infinite  linear floating;animation-delay: 0s;}svg#freepik_stories-documents.animated #freepik--Documents--inject-35 {animation: 1.5s Infinite  linear floating;animation-delay: 0s;}            @keyframes wind {                0% {                    transform: rotate( 0deg );                }                25% {                    transform: rotate( 1deg );                }                75% {                    transform: rotate( -1deg );                }            }                    @keyframes floating {                0% {                    opacity: 1;                    transform: translateY(0px);                }                50% {                    transform: translateY(-10px);                }                100% {                    opacity: 1;                    transform: translateY(0px);                }            }        </style><g id="freepik--Floor--inject-35" style="transform-origin: 256.365px 305.514px 0px;" class="animable"><path d="M98,388.25c87.46,45.69,229.27,45.69,316.73,0s87.46-119.77,0-165.47S185.5,177.09,98,222.78,10.58,342.56,98,388.25Z" style="fill: rgb(245, 245, 245); transform-origin: 256.365px 305.514px 0px;" id="el7u4d5d4ij7" class="animable"></path></g><g id="freepik--filing-cabinets--inject-35" style="transform-origin: 247.655px 230.655px 0px;" class="animable"><polygon points="73.62 313.32 45.19 296.91 45.19 235.93 73.62 252.35 73.62 313.32" style="fill: rgb(224, 224, 224); transform-origin: 59.405px 274.625px 0px;" id="elsx4hbm55sj" class="animable"></polygon><polygon points="73.62 252.35 114.24 228.9 114.24 289.87 73.62 313.32 73.62 252.35" style="fill: rgb(235, 235, 235); transform-origin: 93.93px 271.11px 0px;" id="elrmnewkdyebj" class="animable"></polygon><polygon points="114.24 228.9 73.62 252.35 45.19 235.93 85.81 212.48 114.24 228.9" style="fill: rgb(245, 245, 245); transform-origin: 79.715px 232.415px 0px;" id="eljnltzvpb6fb" class="animable"></polygon><polygon points="77.69 254.69 110.18 235.93 110.93 236.36 110.93 258.95 78.43 277.71 77.68 277.28 77.69 254.69" style="fill: rgb(224, 224, 224); transform-origin: 94.305px 256.82px 0px;" id="elqvlkl2jdx6" class="animable"></polygon><polygon points="78.43 255.13 110.93 236.36 110.93 258.95 78.43 277.71 78.43 255.13" style="fill: rgb(245, 245, 245); transform-origin: 94.68px 257.035px 0px;" id="elvs8vl7b0mlr" class="animable"></polygon><path d="M91.17,251.6l5.53-3.19c.71-.42,1.29-.23,1.29.42a2.59,2.59,0,0,1-1.29,1.92l-5.53,3.19c-.72.42-1.3.23-1.3-.42A2.58,2.58,0,0,1,91.17,251.6Z" style="fill: rgb(224, 224, 224); transform-origin: 93.9297px 251.176px 0px;" id="elarvutzra42r" class="animable"></path><polygon points="76.94 283.27 109.43 264.51 109.43 287.1 110.18 287.53 77.68 306.29 76.94 305.86 76.94 283.27" style="fill: rgb(224, 224, 224); transform-origin: 93.56px 285.4px 0px;" id="elcea1bp563ce" class="animable"></polygon><polygon points="77.68 283.7 110.18 264.94 110.18 287.53 77.68 306.29 77.68 283.7" style="fill: rgb(245, 245, 245); transform-origin: 93.93px 285.615px 0px;" id="elsmdldkbny8j" class="animable"></polygon><path d="M90.42,280.18,96,277c.72-.42,1.3-.23,1.3.42a2.58,2.58,0,0,1-1.3,1.92l-5.53,3.19c-.72.42-1.3.23-1.3-.42A2.58,2.58,0,0,1,90.42,280.18Z" style="fill: rgb(224, 224, 224); transform-origin: 93.2363px 279.766px 0px;" id="elds8jdch2g7" class="animable"></path><polygon points="73.62 248.83 45.19 232.41 45.19 171.44 73.62 187.85 73.62 248.83" style="fill: rgb(224, 224, 224); transform-origin: 59.405px 210.135px 0px;" id="elbrw790djy4w" class="animable"></polygon><polygon points="73.62 187.85 114.24 164.4 114.24 225.38 73.62 248.83 73.62 187.85" style="fill: rgb(235, 235, 235); transform-origin: 93.93px 206.615px 0px;" id="elupfh6qxfl8" class="animable"></polygon><polygon points="114.24 164.4 73.62 187.85 45.19 171.44 85.81 147.99 114.24 164.4" style="fill: rgb(245, 245, 245); transform-origin: 79.715px 167.92px 0px;" id="elkmrgkk6hi8g" class="animable"></polygon><polygon points="77.68 190.2 110.18 171.44 110.93 171.87 110.93 194.46 78.43 213.22 77.68 212.78 77.68 190.2" style="fill: rgb(224, 224, 224); transform-origin: 94.305px 192.33px 0px;" id="elz72zju8znp" class="animable"></polygon><path d="M91.17,187.1l5.52-3.19c.72-.41,1.3-.22,1.3.43a2.6,2.6,0,0,1-1.3,1.92l-5.52,3.19c-.72.41-1.3.23-1.3-.42A2.61,2.61,0,0,1,91.17,187.1Z" style="fill: rgb(224, 224, 224); transform-origin: 93.9297px 186.682px 0px;" id="el4pwux8ybj7o" class="animable"></path><polygon points="76.94 218.78 109.43 200.02 109.43 222.6 110.18 223.03 77.68 241.79 76.94 241.36 76.94 218.78" style="fill: rgb(224, 224, 224); transform-origin: 93.56px 220.905px 0px;" id="elb3q3b3p5c8r" class="animable"></polygon><polygon points="77.68 219.21 110.18 200.45 110.18 223.03 77.68 241.79 77.68 219.21" style="fill: rgb(245, 245, 245); transform-origin: 93.93px 221.12px 0px;" id="elsa8jt7m0hxl" class="animable"></polygon><path d="M90.42,215.68,96,212.49c.71-.41,1.3-.22,1.3.43a2.64,2.64,0,0,1-1.3,1.92L90.42,218c-.72.41-1.3.22-1.3-.42A2.61,2.61,0,0,1,90.42,215.68Z" style="fill: rgb(224, 224, 224); transform-origin: 93.2109px 215.244px 0px;" id="elb90b2oxam2" class="animable"></path><polygon points="77.68 190.2 110.18 171.44 110.18 194.02 77.68 212.78 77.68 190.2" style="fill: rgb(224, 224, 224); transform-origin: 93.93px 192.11px 0px;" id="elnbmu9rvwd1f" class="animable"></polygon><polygon points="126.43 182.6 108.64 172.33 108.64 192.23 126.43 202.49 126.43 182.6" style="fill: rgb(224, 224, 224); transform-origin: 117.535px 187.41px 0px;" id="eleuig59j28nw" class="animable"></polygon><polygon points="89.87 216 89.87 187.85 96.84 183.81 97.99 185.51 118.3 173.78 118.3 199.58 89.87 216" style="fill: rgb(235, 235, 235); transform-origin: 104.085px 194.89px 0px;" id="elt28wvhm15t" class="animable"></polygon><polygon points="89.87 216 91.9 191.37 120.33 174.96 118.3 199.58 89.87 216" style="fill: rgb(245, 245, 245); transform-origin: 105.1px 195.48px 0px;" id="el26zyp8fk9uh" class="animable"></polygon><polygon points="93.93 201.36 78.43 192.41 78.43 212.31 93.93 221.25 93.93 201.36" style="fill: rgb(235, 235, 235); transform-origin: 86.18px 206.83px 0px;" id="el0pr1ieyr270c" class="animable"></polygon><polygon points="93.93 199.58 126.43 180.82 126.43 203.4 93.93 222.16 93.93 199.58" style="fill: rgb(245, 245, 245); transform-origin: 110.18px 201.49px 0px;" id="elrlnxi6b97cc" class="animable"></polygon><path d="M106.67,196.05l5.52-3.19c.72-.41,1.3-.22,1.3.43a2.61,2.61,0,0,1-1.3,1.92l-5.52,3.19c-.72.41-1.3.22-1.3-.42A2.61,2.61,0,0,1,106.67,196.05Z" style="fill: rgb(224, 224, 224); transform-origin: 109.43px 195.631px 0px;" id="eluryr1a1ohvp" class="animable"></path><polygon points="93.93 199.58 92.85 198.96 92.85 221.54 93.93 222.16 93.93 199.58" style="fill: rgb(224, 224, 224); transform-origin: 93.39px 210.56px 0px;" id="elw2qhpyftxyb" class="animable"></polygon><polygon points="92.85 198.96 125.34 180.19 126.43 180.82 93.93 199.58 92.85 198.96" style="fill: rgb(235, 235, 235); transform-origin: 109.64px 189.885px 0px;" id="elhy1lqh6x0yp" class="animable"></polygon><polygon points="409.5 276.38 381.06 259.96 381.06 198.99 409.5 215.4 409.5 276.38" style="fill: rgb(224, 224, 224); transform-origin: 395.28px 237.685px 0px;" id="elk95wflantsc" class="animable"></polygon><polygon points="409.5 215.4 450.12 191.95 450.12 252.93 409.5 276.38 409.5 215.4" style="fill: rgb(235, 235, 235); transform-origin: 429.81px 234.165px 0px;" id="elyw83ubsx7vd" class="animable"></polygon><polygon points="450.12 191.95 409.5 215.4 381.06 198.99 421.69 175.53 450.12 191.95" style="fill: rgb(245, 245, 245); transform-origin: 415.59px 195.465px 0px;" id="elhtvgnwyzmc" class="animable"></polygon><polygon points="413.56 217.75 446.06 198.99 446.81 199.42 446.8 222 414.31 240.76 413.56 240.33 413.56 217.75" style="fill: rgb(224, 224, 224); transform-origin: 430.185px 219.875px 0px;" id="elmb2tvl4axz" class="animable"></polygon><polygon points="414.31 218.18 446.81 199.42 446.8 222 414.31 240.76 414.31 218.18" style="fill: rgb(245, 245, 245); transform-origin: 430.56px 220.09px 0px;" id="elrx77z8qj62" class="animable"></polygon><path d="M427.05,214.65l5.52-3.19c.72-.41,1.3-.22,1.3.42a2.61,2.61,0,0,1-1.3,1.93L427.05,217c-.72.41-1.3.22-1.3-.42A2.61,2.61,0,0,1,427.05,214.65Z" style="fill: rgb(224, 224, 224); transform-origin: 429.811px 214.229px 0px;" id="el4cj4y7dwrg3" class="animable"></path><polygon points="412.81 246.33 445.31 227.56 445.31 250.15 446.06 250.58 413.56 269.34 412.81 268.91 412.81 246.33" style="fill: rgb(224, 224, 224); transform-origin: 429.435px 248.45px 0px;" id="elma5huag7ws" class="animable"></polygon><polygon points="413.56 246.76 446.06 228 446.06 250.58 413.56 269.34 413.56 246.76" style="fill: rgb(245, 245, 245); transform-origin: 429.81px 248.67px 0px;" id="el7q92ela9sf" class="animable"></polygon><path d="M426.3,243.23l5.53-3.19c.71-.41,1.29-.22,1.29.42a2.63,2.63,0,0,1-1.29,1.93l-5.53,3.19c-.72.41-1.3.22-1.3-.43A2.61,2.61,0,0,1,426.3,243.23Z" style="fill: rgb(224, 224, 224); transform-origin: 429.061px 242.811px 0px;" id="elx0otpm1ckdh" class="animable"></path></g><g id="freepik--Plants--inject-35" style="transform-origin: 265.963px 310.721px 0px;" class="animable animator-active"><path d="M139,340.11s.11-15.86-9.89-27.75c-8.85-10.53-13.56-17.21-10.77-20.29s8.79-3.82,16.88,4.7,8.72,32.12,7.6,37.46Z" style="fill: rgb(8, 62, 185); transform-origin: 130.393px 315.023px 0px;" id="elbz1hxfvt0kb" class="animable"></path><g id="elra4xhes45c"><path d="M139,340.11s.11-15.86-9.89-27.75c-8.85-10.53-13.56-17.21-10.77-20.29s8.79-3.82,16.88,4.7,8.72,32.12,7.6,37.46Z" style="opacity: 0.2; transform-origin: 130.393px 315.023px 0px;" class="animable"></path></g><path d="M140.68,323.06a.5.5,0,0,1-.49-.39c-3.5-16.37-12.48-25.42-17.53-29.36a.5.5,0,0,1-.09-.7.51.51,0,0,1,.71-.09c5.15,4,14.32,13.26,17.89,29.94a.49.49,0,0,1-.38.59Z" style="fill: rgb(255, 255, 255); transform-origin: 131.824px 307.736px 0px;" id="elhjznte4vbws" class="animable"></path><path d="M138.62,346l-4.07,2.35a7.36,7.36,0,0,0-5.48-4.69c-4.45-1-9.07-.83-12.19-4.69s.68-8.06,0-10.9-1.12-3.66-6.7-6.5-7.78-7.55-3.58-10.74,11-.85,15.12,2c3.66,2.5,7.14,3.16,11.23,3.67s10.75,2.78,9.73,12.28A74.86,74.86,0,0,1,138.62,346Z" style="fill: rgb(8, 62, 185); transform-origin: 123.598px 328.824px 0px;" id="elekkib42mmd" class="animable"></path><path d="M123,333.52a.51.51,0,0,1-.48-.35.51.51,0,0,1,.33-.63c.36-.11,9-2.85,12.67.09a.5.5,0,0,1-.62.78c-3.24-2.6-11.66.06-11.75.09Z" style="fill: rgb(255, 255, 255); transform-origin: 129.088px 332.396px 0px;" id="elzyeqcidpri" class="animable"></path><path d="M139.07,345.24a.49.49,0,0,1-.49-.44c-2.23-21.06-27.6-31.05-27.85-31.15a.5.5,0,0,1-.29-.65.51.51,0,0,1,.64-.29c.27.11,26.2,10.31,28.49,32a.5.5,0,0,1-.44.55Z" style="fill: rgb(255, 255, 255); transform-origin: 124.99px 328.973px 0px;" id="elxd0qgi8tkh" class="animable"></path><path d="M387.8,332.17c.11-.35,4.4-22.43,0-38.09-4-14.36-9.22-19.66-16.66-20.83s-10.67,4.19-6.72,11.45,13.46,16.89,15.79,33.11c1,6.68,1.76,12.48,1.76,12.48Z" style="fill: rgb(8, 62, 185); transform-origin: 376.252px 302.631px 0px;" id="elkom6yfs6u2l" class="animable"></path><g id="el3ooxbzyfdev"><path d="M387.8,332.17c.11-.35,4.4-22.43,0-38.09-4-14.36-9.22-19.66-16.66-20.83s-10.67,4.19-6.72,11.45,13.46,16.89,15.79,33.11c1,6.68,1.76,12.48,1.76,12.48Z" style="opacity: 0.2; transform-origin: 376.252px 302.631px 0px;" class="animable"></path></g><path d="M385.29,319.49h0a.5.5,0,0,1-.47-.53c1-17.88-4.84-33.84-15.31-41.67a.5.5,0,0,1-.1-.7.51.51,0,0,1,.7-.1c10.73,8,16.75,24.32,15.7,42.53A.5.5,0,0,1,385.29,319.49Z" style="fill: rgb(255, 255, 255); transform-origin: 377.619px 297.941px 0px;" id="el4knh3jqr91y" class="animable"></path><path d="M399.31,343.67c-.57-4.11,1.79-10.27,7.4-11.73s8.11-4.68,6.09-8.2-1.55-6.75,3.54-8.21,9.55-4,6.62-9.38c-2.13-3.89-2.6-6.41,2.62-14.07,4.33-6.36.79-10.09-4.63-9.39s-8.77,7.16-12.16,8.24-4.17-4.68-8.64-2.1-4.2,9.19-4.34,13.8-.44,5.65-4.48,5.09-8,.1-7.91,9.87c.07,8.38,4.54,18.76,4.54,18.76Z" style="fill: rgb(8, 62, 185); transform-origin: 405.469px 313.139px 0px;" id="elwygkkf2zitb" class="animable"></path><path d="M392.22,337.42h-.05a.51.51,0,0,1-.45-.56c2.82-25.19,24.44-46.44,30.08-50.75a.5.5,0,0,1,.61.8c-5.57,4.25-26.91,25.22-29.69,50.06A.51.51,0,0,1,392.22,337.42Z" style="fill: rgb(255, 255, 255); transform-origin: 407.162px 311.715px 0px;" id="elh0iiw8lp5qk" class="animable"></path><path d="M402.08,310.49a.51.51,0,0,1-.47-.32.52.52,0,0,1,.3-.65c8.06-3,17.2-1.58,17.59-1.52a.5.5,0,0,1,.41.57.52.52,0,0,1-.57.42c-.09,0-9.27-1.44-17.08,1.47A.57.57,0,0,1,402.08,310.49Z" style="fill: rgb(255, 255, 255); transform-origin: 410.75px 309.051px 0px;" id="elxrky9w11of" class="animable"></path><path d="M394.9,325.63a.5.5,0,0,1-.37-.17,29.48,29.48,0,0,1-6.59-13.67.5.5,0,0,1,.42-.57.5.5,0,0,1,.57.42,28.9,28.9,0,0,0,6.35,13.15.51.51,0,0,1-.38.84Z" style="fill: rgb(255, 255, 255); transform-origin: 391.668px 318.422px 0px;" id="elrlrmcgxi0qb" class="animable"></path></g><g id="freepik--folder-2--inject-35" style="transform-origin: 223.92px 229.925px 0px;" class="animable"><polygon points="138.62 191.23 138.62 346.01 297.04 254.55 297.03 113.84 179.24 181.85 175.17 170.12 138.62 191.23" style="fill: rgb(8, 62, 185); transform-origin: 217.83px 229.925px 0px;" id="elpsf86y1zf2r" class="animable"></polygon><g id="elpmmrbph2zf"><polygon points="138.62 191.23 138.62 346.01 297.04 254.55 297.03 113.84 179.24 181.85 175.17 170.12 138.62 191.23" style="opacity: 0.7; transform-origin: 217.83px 229.925px 0px;" class="animable"></polygon></g><polygon points="138.62 346.01 146.74 205.3 305.16 113.84 297.04 254.55 138.62 346.01" style="fill: rgb(224, 224, 224); transform-origin: 221.89px 229.925px 0px;" id="elge6seqdbmcm" class="animable"></polygon><polygon points="138.62 346.01 150.8 207.65 309.22 116.18 297.04 254.55 138.62 346.01" style="fill: rgb(8, 62, 185); transform-origin: 223.92px 231.095px 0px;" id="elbjknzi2jrs" class="animable"></polygon><g id="elfp0jrwxv5uq"><polygon points="138.62 346.01 150.8 207.65 309.22 116.18 297.04 254.55 138.62 346.01" style="opacity: 0.7; transform-origin: 223.92px 231.095px 0px;" class="animable"></polygon></g></g><g id="freepik--folder-1--inject-35" style="transform-origin: 248.29px 244px 0px;" class="animable"><polygon points="162.99 205.3 162.99 360.09 321.41 268.62 321.41 127.91 203.61 195.92 199.55 184.19 162.99 205.3" style="fill: rgb(8, 62, 185); transform-origin: 242.2px 244px 0px;" id="el4wj5so0us86" class="animable"></polygon><g id="el2ygq9hltjlz"><polygon points="162.99 205.3 162.99 360.09 321.41 268.62 321.41 127.91 203.61 195.92 199.55 184.19 162.99 205.3" style="opacity: 0.5; transform-origin: 242.2px 244px 0px;" class="animable"></polygon></g><polygon points="162.99 360.09 171.11 219.37 329.53 127.91 321.41 268.62 162.99 360.09" style="fill: rgb(224, 224, 224); transform-origin: 246.26px 244px 0px;" id="elq1g65tsf5il" class="animable"></polygon><polygon points="162.99 360.09 175.17 221.72 333.59 130.25 321.41 268.62 162.99 360.09" style="fill: rgb(8, 62, 185); transform-origin: 248.29px 245.17px 0px;" id="elg6bmsxx2tgt" class="animable"></polygon><g id="eliiypv1tud4"><polygon points="162.99 360.09 175.17 221.72 333.59 130.25 321.41 268.62 162.99 360.09" style="opacity: 0.5; transform-origin: 248.29px 245.17px 0px;" class="animable"></polygon></g></g><g id="freepik--Documents--inject-35" style="transform-origin: 299.065px 237.42px 0px;" class="animable"><path d="M297,409.34c-28.44-16.42-54.82-34.27-66.86-55.21L266.74,333Z" style="fill: rgb(224, 224, 224); transform-origin: 263.57px 371.17px 0px;" id="elz4ps4x6qc" class="animable"></path><polygon points="191.42 221.72 191.42 376.5 349.84 285.04 349.84 144.33 232.04 212.34 227.98 200.61 191.42 221.72" style="fill: rgb(8, 62, 185); transform-origin: 270.63px 260.415px 0px;" id="elqoixmdn6ve" class="animable"></polygon><g id="elgaaula6r918"><polygon points="191.42 221.72 191.42 376.5 349.84 285.04 349.84 144.33 232.04 212.34 227.98 200.61 191.42 221.72" style="opacity: 0.2; transform-origin: 270.63px 260.415px 0px;" class="animable"></polygon></g><path d="M237.06,267.48c-.4,0-.46-.46-.46-.73v-132a3.32,3.32,0,0,1,1.48-2.56l114.34-66a1.06,1.06,0,0,1,.52-.16c.4,0,.46.46.46.73v132a3.33,3.33,0,0,1-1.48,2.57l-114.34,66A1.09,1.09,0,0,1,237.06,267.48Z" style="fill: rgb(255, 255, 255); transform-origin: 295px 166.756px 0px;" id="elm3qgb7zjt98" class="animable"></path><path d="M352.88,66.49a1,1,0,0,1,0,.22v132a2.87,2.87,0,0,1-1.23,2.14l-114.34,66-.2.09a.61.61,0,0,1,0-.22v-132a2.87,2.87,0,0,1,1.23-2.13l114.34-66a.56.56,0,0,1,.21-.09m.06-1a1.56,1.56,0,0,0-.77.23l-114.34,66a3.85,3.85,0,0,0-1.73,3v132c0,.78.39,1.23,1,1.23a1.54,1.54,0,0,0,.77-.23l114.34-66a3.81,3.81,0,0,0,1.73-3v-132c0-.78-.39-1.24-1-1.23Z" style="fill: rgb(8, 62, 185); transform-origin: 295.029px 166.73px 0px;" id="elk4aj2i23hnc" class="animable"></path><g id="el9oornjs83o"><path d="M352.88,66.49a1,1,0,0,1,0,.22v132a2.87,2.87,0,0,1-1.23,2.14l-114.34,66-.2.09a.61.61,0,0,1,0-.22v-132a2.87,2.87,0,0,1,1.23-2.13l114.34-66a.56.56,0,0,1,.21-.09m.06-1a1.56,1.56,0,0,0-.77.23l-114.34,66a3.85,3.85,0,0,0-1.73,3v132c0,.78.39,1.23,1,1.23a1.54,1.54,0,0,0,.77-.23l114.34-66a3.81,3.81,0,0,0,1.73-3v-132c0-.78-.39-1.24-1-1.23Z" style="fill: rgb(255, 255, 255); opacity: 0.7; transform-origin: 295.029px 166.73px 0px;" class="animable"></path></g><polygon points="248.29 139.76 288.91 116.31 288.91 163.21 248.29 186.66 248.29 139.76" style="fill: rgb(8, 62, 185); transform-origin: 268.6px 151.485px 0px;" id="elg82o8bwawhk" class="animable"></polygon><g id="eli9nyn9as1j"><polygon points="248.29 139.76 288.91 116.31 288.91 163.21 248.29 186.66 248.29 139.76" style="fill: rgb(255, 255, 255); opacity: 0.8; transform-origin: 268.6px 151.485px 0px;" class="animable"></polygon></g><path d="M282.82,128V142.1l-1.28.71V138.5c0-2.38-1.93-3.19-4.33-1.81L260,146.64c-2.39,1.38-4.33,4.43-4.33,6.81v4.31l-1.27.76V144.45Z" style="fill: rgb(255, 255, 255); transform-origin: 268.609px 143.26px 0px;" id="elnzij0fbm9yf" class="animable"></path><path d="M275,163.9c-2.08,1.2-3.77-.06-3.77-2.83V138.5L266,141.34v22.75c0,2.76-1.69,6-3.77,7.17l-3.78,2.18v1.5l20.31-11.73v-1.49Z" style="fill: rgb(255, 255, 255); transform-origin: 268.605px 156.721px 0px;" id="eljh0fg6gbgvr" class="animable"></path><path d="M297,114c0,1.3,1.17,1.67,2.6.85L339.12,92a5.22,5.22,0,0,0,2.6-3.85c0-1.29-1.17-1.67-2.6-.84l-39.49,22.8A5.2,5.2,0,0,0,297,114Z" style="fill: rgb(69, 90, 100); transform-origin: 319.359px 101.078px 0px;" id="elt4ezec7hs6c" class="animable"></path><path d="M297,128c0,1.3,1.17,1.68,2.6.85l39.49-22.8a5.22,5.22,0,0,0,2.6-3.85c0-1.29-1.17-1.67-2.6-.84l-39.49,22.8A5.22,5.22,0,0,0,297,128Z" style="fill: rgb(69, 90, 100); transform-origin: 319.346px 115.105px 0px;" id="elh1elone5qzq" class="animable"></path><path d="M297,142.1c0,1.3,1.17,1.68,2.6.85l39.49-22.8a5.22,5.22,0,0,0,2.6-3.84c0-1.3-1.17-1.68-2.6-.85l-39.49,22.8A5.22,5.22,0,0,0,297,142.1Z" style="fill: rgb(69, 90, 100); transform-origin: 319.346px 129.205px 0px;" id="el8e5wmnzjwyt" class="animable"></path><path d="M297,156.17c0,1.3,1.17,1.68,2.6.85l39.49-22.8a5.22,5.22,0,0,0,2.6-3.84c0-1.3-1.17-1.68-2.6-.85l-39.49,22.8A5.22,5.22,0,0,0,297,156.17Z" style="fill: rgb(69, 90, 100); transform-origin: 319.346px 143.275px 0px;" id="el0uyifs7raeld" class="animable"></path><path d="M248.29,198.39c0,1.3,1.16,1.68,2.6.85l88.23-51a5.2,5.2,0,0,0,2.6-3.84c0-1.3-1.17-1.67-2.6-.85l-88.23,51A5.19,5.19,0,0,0,248.29,198.39Z" style="fill: rgb(69, 90, 100); transform-origin: 295.004px 171.398px 0px;" id="el1f9oms5i2w8" class="animable"></path><path d="M248.29,212.46c0,1.3,1.16,1.68,2.6.85l88.23-50.94a5.22,5.22,0,0,0,2.6-3.85c0-1.29-1.17-1.67-2.6-.84l-88.23,50.94A5.19,5.19,0,0,0,248.29,212.46Z" style="fill: rgb(69, 90, 100); transform-origin: 295.004px 185.496px 0px;" id="el2kl3pdl61rk" class="animable"></path><path d="M248.29,226.54c0,1.29,1.16,1.67,2.6.84l88.23-50.94a5.22,5.22,0,0,0,2.6-3.85c0-1.29-1.17-1.67-2.6-.84l-88.23,50.94A5.19,5.19,0,0,0,248.29,226.54Z" style="fill: rgb(69, 90, 100); transform-origin: 295.004px 199.566px 0px;" id="elkhyi4bolwlo" class="animable"></path><polygon points="191.42 376.5 219.85 252.21 378.27 160.74 349.84 285.04 191.42 376.5" style="fill: rgb(8, 62, 185); transform-origin: 284.845px 268.62px 0px;" id="elecvg1k7vs0b" class="animable"></polygon><polygon points="230.18 261.94 230.18 354.13 266.74 333.02 266.74 240.84 230.18 261.94" style="fill: rgb(8, 62, 185); transform-origin: 248.46px 297.485px 0px;" id="elg7ukqo8msml" class="animable"></polygon><g id="el4mlkchmttji"><polygon points="230.18 261.94 230.18 354.13 266.74 333.02 266.74 240.84 230.18 261.94" style="opacity: 0.2; transform-origin: 248.46px 297.485px 0px;" class="animable"></polygon></g><path d="M297.07,408.74c-3.11-2.32-33.09-25.23-48.33-58-16.22-34.84-16.2-75.48-16.2-90.77v-.48l108.68-62.74c0,15.43,0,56.13,16.29,91.09,14.89,32,43.72,54.62,48.29,58.08Z" style="fill: rgb(255, 255, 255); transform-origin: 319.17px 302.744px 0px;" id="elde9ar8z22v8" class="animable"></path><path d="M340.72,197.65c0,16.08.31,56,16.34,90.44,14.39,30.9,41.75,53.12,47.84,57.81L297.1,408.14c-4.21-3.17-33.06-25.7-47.9-57.57C233,315.83,233,275.27,233,260v-.19l107.68-62.17m1-1.73L232,259.24c0,14.39-.3,56.2,16.25,91.75C264.54,385.88,297,409.34,297,409.34L406.71,346s-32.5-23.46-48.74-58.35c-16.56-35.55-16.25-77.36-16.25-91.75Z" style="fill: rgb(8, 62, 185); transform-origin: 319.355px 302.619px 0px;" id="elv8z8knzoh4b" class="animable"></path><g id="el45fv5vhi2se"><path d="M340.72,197.65c0,16.08.31,56,16.34,90.44,14.39,30.9,41.75,53.12,47.84,57.81L297.1,408.14c-4.21-3.17-33.06-25.7-47.9-57.57C233,315.83,233,275.27,233,260v-.19l107.68-62.17m1-1.73L232,259.24c0,14.39-.3,56.2,16.25,91.75C264.54,385.88,297,409.34,297,409.34L406.71,346s-32.5-23.46-48.74-58.35c-16.56-35.55-16.25-77.36-16.25-91.75Z" style="fill: rgb(255, 255, 255); opacity: 0.7; transform-origin: 319.355px 302.619px 0px;" class="animable"></path></g><path d="M329.31,217.15l-34.68,20a4.92,4.92,0,0,0-2.52,3.79c.05,1.27,1.26,1.63,2.69.8l34.69-20A4.92,4.92,0,0,0,332,218C331.94,216.68,330.75,216.32,329.31,217.15Z" style="fill: rgb(69, 90, 100); transform-origin: 312.055px 229.447px 0px;" id="el64iwgu0t664" class="animable"></path><path d="M330.05,230.8l-34.68,20a4.62,4.62,0,0,0-2.42,3.74c.11,1.23,1.37,1.56,2.8.73l34.69-20a4.56,4.56,0,0,0,2.39-3.73C332.73,230.3,331.49,230,330.05,230.8Z" style="fill: rgb(69, 90, 100); transform-origin: 312.889px 243.041px 0px;" id="eloaeh2c44ef" class="animable"></path><path d="M331.44,244.07l-34.69,20c-1.43.83-2.47,2.48-2.3,3.67s1.48,1.5,2.92.67l34.69-20c1.43-.83,2.45-2.47,2.27-3.66S332.87,243.24,331.44,244.07Z" style="fill: rgb(69, 90, 100); transform-origin: 314.389px 256.24px 0px;" id="el4afcewg8i94" class="animable"></path><path d="M333.52,256.94l-34.69,20c-1.43.83-2.42,2.45-2.18,3.61s1.6,1.42,3,.59l34.68-20c1.44-.83,2.4-2.44,2.16-3.6S335,256.11,333.52,256.94Z" style="fill: rgb(69, 90, 100); transform-origin: 316.57px 269.041px 0px;" id="el2ox0e0r302s" class="animable"></path><path d="M336.34,269.38l-34.69,20c-1.43.83-2.36,2.41-2,3.52s1.73,1.36,3.16.53l34.69-20c1.44-.83,2.34-2.4,2-3.52S337.77,268.55,336.34,269.38Z" style="fill: rgb(69, 90, 100); transform-origin: 319.57px 281.404px 0px;" id="elbu88soa1p14" class="animable"></path><path d="M340,281.37l-84.54,48.81c-1.43.83-2.3,2.37-1.91,3.44s1.88,1.27,3.31.44l84.54-48.81c1.44-.83,2.27-2.36,1.88-3.44S341.38,280.54,340,281.37Z" style="fill: rgb(69, 90, 100); transform-origin: 298.418px 307.715px 0px;" id="elaz7ni8izdx8" class="animable"></path><path d="M344.45,292.82l-84.53,48.81c-1.44.83-2.23,2.33-1.75,3.35s2,1.18,3.46.35l84.54-48.81c1.44-.83,2.21-2.33,1.73-3.35S345.89,292,344.45,292.82Z" style="fill: rgb(69, 90, 100); transform-origin: 303.037px 319.078px 0px;" id="elsrxc5k8f0h" class="animable"></path><path d="M350,303.73l-84.54,48.81c-1.44.83-2.15,2.29-1.58,3.26s2.2,1.07,3.64.24L352,307.23c1.43-.82,2.12-2.27,1.55-3.24S351.4,302.9,350,303.73Z" style="fill: rgb(69, 90, 100); transform-origin: 308.717px 329.889px 0px;" id="el240yme3fq3l" class="animable"></path><path d="M356.47,314.05l-84.53,48.8c-1.44.83-2.08,2.26-1.43,3.17s2.36,1,3.8.16l84.53-48.81c1.44-.83,2.06-2.24,1.41-3.16S357.91,313.22,356.47,314.05Z" style="fill: rgb(69, 90, 100); transform-origin: 315.383px 340.113px 0px;" id="elu9rp1a6icfk" class="animable"></path><path d="M363.85,323.86l-84.54,48.8c-1.43.83-2,2.22-1.28,3.09s2.49.91,3.93.08L366.5,327c1.43-.83,2-2.2,1.26-3.07S365.29,323,363.85,323.86Z" style="fill: rgb(69, 90, 100); transform-origin: 322.902px 349.838px 0px;" id="el9o1p8f1lkf5" class="animable"></path><path d="M372,333.2,287.49,382c-1.44.83-2,2.19-1.16,3s2.62.83,4.05,0l84.54-48.81c1.44-.83,1.94-2.17,1.14-3S373.46,332.38,372,333.2Z" style="fill: rgb(69, 90, 100); transform-origin: 331.188px 359.094px 0px;" id="elhkwzqf071nw" class="animable"></path><path d="M381,342.13l-84.54,48.8c-1.43.83-1.9,2.16-1,2.95s2.74.76,4.18-.07L384.11,345c1.43-.83,1.88-2.13,1-2.93S382.4,341.3,381,342.13Z" style="fill: rgb(69, 90, 100); transform-origin: 340.279px 367.971px 0px;" id="elvrzawrietn" class="animable"></path><path d="M282.06,244.44l-39.88,23c.44,14.45,2.09,35.29,8.13,56.28l39.89-23C284.15,279.73,282.5,258.88,282.06,244.44Z" style="fill: rgb(8, 62, 185); transform-origin: 266.189px 284.08px 0px;" id="elqnizq5nfu4s" class="animable"></path><g id="elab32wxg5f4f"><path d="M282.06,244.44l-39.88,23c.44,14.45,2.09,35.29,8.13,56.28l39.89-23C284.15,279.73,282.5,258.88,282.06,244.44Z" style="fill: rgb(255, 255, 255); opacity: 0.8; transform-origin: 266.189px 284.08px 0px;" class="animable"></path></g><path d="M258.44,264.26a6.59,6.59,0,0,0-1.94-5.06l-14.32,8.26c.12,3.82.32,8.09.67,12.69a9.39,9.39,0,0,0,5.41-1C253.89,276.57,258.44,269.88,258.44,264.26Z" style="fill: rgb(8, 62, 185); transform-origin: 250.316px 269.705px 0px;" id="elblph0xoa5ur" class="animable"></path><g id="elgyo5i94dxv"><path d="M258.44,264.26a6.59,6.59,0,0,0-1.94-5.06l-14.32,8.26c.12,3.82.32,8.09.67,12.69a9.39,9.39,0,0,0,5.41-1C253.89,276.57,258.44,269.88,258.44,264.26Z" style="fill: rgb(255, 255, 255); opacity: 0.6; transform-origin: 250.316px 269.705px 0px;" class="animable"></path></g><path d="M286.81,286.92h0c-2.66-3.35-8.07-13.7-10.38-18.21a1,1,0,0,0-1.85.17,109.75,109.75,0,0,0-4.32,26.25,38,38,0,0,1-8.47-9.42.89.89,0,0,0-1.59.28c-4.36,16.79-2.17,33.31-2.17,33.31h0l32.17-18.58C288.86,296.08,287.75,291.46,286.81,286.92Z" style="fill: rgb(8, 62, 185); transform-origin: 273.84px 293.732px 0px;" id="elwjhz3ci9abr" class="animable"></path><g id="el54g5fwmoxt8"><path d="M286.81,286.92h0c-2.66-3.35-8.07-13.7-10.38-18.21a1,1,0,0,0-1.85.17,109.75,109.75,0,0,0-4.32,26.25,38,38,0,0,1-8.47-9.42.89.89,0,0,0-1.59.28c-4.36,16.79-2.17,33.31-2.17,33.31h0l32.17-18.58C288.86,296.08,287.75,291.46,286.81,286.92Z" style="fill: rgb(255, 255, 255); opacity: 0.6; transform-origin: 273.84px 293.732px 0px;" class="animable"></path></g></g><defs>     <filter id="active" height="200%">         <feMorphology in="SourceAlpha" result="DILATED" operator="dilate" radius="2"></feMorphology>                <feFlood flood-color="#32DFEC" flood-opacity="1" result="PINK"></feFlood>        <feComposite in="PINK" in2="DILATED" operator="in" result="OUTLINE"></feComposite>        <feMerge>            <feMergeNode in="OUTLINE"></feMergeNode>            <feMergeNode in="SourceGraphic"></feMergeNode>        </feMerge>    </filter>    <filter id="hover" height="200%">        <feMorphology in="SourceAlpha" result="DILATED" operator="dilate" radius="2"></feMorphology>                <feFlood flood-color="#ff0000" flood-opacity="0.5" result="PINK"></feFlood>        <feComposite in="PINK" in2="DILATED" operator="in" result="OUTLINE"></feComposite>        <feMerge>            <feMergeNode in="OUTLINE"></feMergeNode>            <feMergeNode in="SourceGraphic"></feMergeNode>        </feMerge>            <feColorMatrix type="matrix" values="0   0   0   0   0                0   1   0   0   0                0   0   0   0   0                0   0   0   1   0 "></feColorMatrix>    </filter></defs></svg>